<?xml version="1.0" encoding="UTF-8" standalone="no"?>
<!DOCTYPE svg PUBLIC "-//W3C//DTD SVG 1.1//EN" "http://www.w3.org/Graphics/SVG/1.1/DTD/svg11.dtd">
<svg xmlns="http://www.w3.org/2000/svg" version="1.1" viewBox="0.00 0.00 121.00 121.00">
<path fill="#000000" d="
  M 19.94 43.42
  A 0.29 0.29 0.0 0 0 20.40 43.74
  L 28.40 36.84
  A 2.07 2.05 79.0 0 0 29.01 35.93
  Q 29.73 33.76 31.84 33.67
  A 2.03 2.02 24.8 0 0 32.97 33.26
  Q 36.72 30.34 40.69 27.25
  C 41.73 26.43 42.44 24.49 44.14 25.14
  Q 46.34 25.99 53.74 26.25
  Q 56.15 26.34 56.32 28.78
  A 1.50 1.49 -70.2 0 0 56.78 29.76
  L 75.60 47.29
  A 0.88 0.88 0.0 0 0 76.55 47.45
  C 81.92 45.08 83.86 39.18 84.03 33.50
  Q 84.12 30.65 86.06 27.14
  A 0.84 0.84 0.0 0 0 85.96 26.19
  L 85.07 25.15
  A 1.36 1.35 -66.1 0 1 84.74 24.29
  Q 84.72 23.05 86.02 21.93
  A 0.85 0.84 45.8 0 1 87.15 21.95
  L 88.05 22.79
  A 0.68 0.68 0.0 0 0 88.94 22.82
  C 93.25 19.38 97.36 23.42 101.86 23.18
  C 106.64 22.93 109.79 25.25 108.69 30.34
  A 3.01 2.91 67.2 0 1 108.35 31.22
  Q 106.55 34.19 103.73 33.48
  C 101.13 32.82 99.12 33.57 97.08 34.59
  A 4.61 4.60 80.6 0 0 94.57 38.11
  C 93.98 42.64 93.93 45.13 92.70 48.51
  C 88.66 59.52 79.81 65.43 68.45 67.58
  A 0.91 0.90 -4.8 0 0 67.72 68.44
  L 66.81 99.32
  A 0.80 0.80 0.0 0 0 67.68 100.13
  Q 70.20 99.87 70.87 101.34
  A 1.00 0.99 67.9 0 0 72.10 101.87
  C 87.59 96.49 98.26 83.32 100.12 67.03
  Q 101.70 53.16 96.50 41.51
  A 1.50 1.49 67.2 0 1 97.31 39.51
  L 97.45 39.45
  A 1.58 1.58 0.0 0 1 99.51 40.34
  C 103.78 51.30 104.25 60.18 102.73 71.00
  C 101.58 79.23 95.67 89.80 89.38 95.29
  Q 72.72 109.83 50.50 106.46
  Q 44.03 105.48 37.74 101.75
  C 30.85 97.68 25.60 93.21 22.73 85.78
  C 21.56 82.74 23.63 81.94 24.02 79.94
  Q 24.79 75.98 26.57 71.06
  A 1.85 1.84 46.2 0 0 26.59 69.85
  Q 26.32 69.01 26.38 67.80
  A 2.13 2.09 29.7 0 0 26.02 66.53
  Q 23.69 63.06 19.64 58.26
  Q 18.81 57.28 19.47 55.30
  A 2.07 1.97 51.3 0 0 19.55 54.37
  L 18.77 48.70
  A 0.24 0.23 48.6 0 0 18.31 48.67
  Q 17.43 52.04 17.42 54.00
  Q 17.29 70.91 17.40 76.06
  Q 17.41 76.44 17.81 77.39
  A 1.57 1.56 -50.7 0 1 17.90 78.32
  C 17.14 81.98 11.97 79.92 13.77 77.06
  A 2.77 2.70 -29.6 0 0 14.19 75.61
  Q 14.09 63.28 14.24 56.25
  C 14.63 37.38 28.22 22.15 46.11 17.36
  Q 62.22 13.03 78.41 19.63
  A 1.81 1.80 -71.8 0 1 79.48 21.76
  L 79.44 21.92
  A 1.37 1.36 19.4 0 1 77.57 22.81
  C 60.87 15.50 42.92 17.93 29.43 29.92
  Q 22.94 35.70 19.94 43.42
  Z
  M 103.82 27.35
  Q 103.82 27.01 104.23 26.61
  A 0.65 0.61 19.9 0 0 103.70 25.56
  Q 99.66 25.80 96.29 24.70
  C 93.97 23.94 91.94 23.65 90.35 25.42
  C 87.85 28.20 89.63 32.54 93.31 33.24
  A 1.90 1.88 29.4 0 0 94.91 32.80
  Q 96.21 31.63 98.36 31.21
  A 2.59 2.59 0.0 0 0 99.78 30.42
  L 100.34 29.83
  A 0.97 0.97 0.0 0 1 101.52 29.63
  C 102.85 30.33 104.18 31.49 105.82 30.75
  A 1.41 1.36 36.6 0 0 105.38 28.14
  Q 105.22 28.11 104.49 28.06
  A 0.71 0.71 0.0 0 1 103.82 27.35
  Z
  M 48.17 35.64
  A 0.20 0.20 0.0 0 0 48.52 35.65
  L 51.37 30.71
  A 1.19 1.19 0.0 0 0 50.37 28.93
  L 45.96 28.80
  A 0.81 0.80 -13.0 0 0 45.22 29.97
  L 48.17 35.64
  Z
  M 35.35 35.77
  L 45.44 37.24
  A 0.71 0.70 -9.6 0 0 46.17 36.22
  L 43.02 30.18
  A 0.33 0.33 0.0 0 0 42.54 30.06
  L 35.16 34.91
  A 0.47 0.47 0.0 0 0 35.35 35.77
  Z
  M 62.06 38.65
  L 54.10 31.23
  A 0.50 0.50 0.0 0 0 53.33 31.35
  L 50.55 36.16
  A 2.90 2.90 0.0 0 0 51.61 40.12
  L 57.67 43.62
  A 2.61 2.60 -64.9 0 0 61.42 42.26
  L 62.32 39.76
  A 1.03 1.01 -58.8 0 0 62.06 38.65
  Z
  M 91.25 40.66
  L 91.92 36.06
  A 0.67 0.66 -73.3 0 0 91.55 35.36
  Q 89.72 34.51 87.43 32.23
  A 0.46 0.46 0.0 0 0 86.69 32.77
  L 90.84 40.73
  A 0.22 0.22 0.0 0 0 91.25 40.66
  Z
  M 44.81 39.24
  L 35.59 37.56
  A 0.65 0.64 -7.5 0 0 34.89 38.48
  L 37.59 44.13
  A 0.31 0.30 -28.7 0 0 38.02 44.25
  L 44.96 40.04
  A 0.43 0.43 0.0 0 0 44.81 39.24
  Z
  M 87.04 47.60
  L 89.76 43.84
  A 0.67 0.66 -45.7 0 0 89.76 43.05
  Q 88.53 41.45 87.56 38.38
  A 0.46 0.46 0.0 0 0 86.66 38.51
  L 86.65 47.47
  A 0.22 0.22 0.0 0 0 87.04 47.60
  Z
  M 24.00 53.63
  L 35.11 46.31
  A 0.85 0.83 -27.0 0 0 35.44 45.32
  L 33.70 40.50
  A 2.43 2.42 -30.4 0 0 29.84 39.50
  L 23.48 44.99
  A 4.91 4.90 -24.3 0 0 21.82 49.37
  L 22.30 52.86
  A 1.10 1.10 0.0 0 0 24.00 53.63
  Z
  M 56.69 45.51
  A 0.24 0.22 23.0 0 0 56.58 45.26
  L 49.75 41.32
  A 3.57 3.55 -46.6 0 0 46.01 41.43
  L 39.49 45.72
  A 2.00 2.00 0.0 0 0 38.73 48.14
  L 40.35 52.20
  A 2.34 2.33 62.5 0 0 43.80 53.29
  L 51.12 48.47
  A 0.80 0.80 0.0 0 0 51.48 47.93
  C 51.83 46.22 53.17 44.90 54.97 45.58
  Q 56.51 46.16 56.69 45.51
  Z
  M 72.10 48.01
  L 67.71 43.92
  A 0.89 0.88 50.1 0 0 66.64 43.82
  Q 65.04 44.84 63.15 44.12
  A 0.73 0.73 0.0 0 0 62.36 44.31
  L 61.83 44.87
  A 0.16 0.16 0.0 0 0 61.90 45.13
  L 71.68 48.69
  A 0.41 0.41 0.0 0 0 72.10 48.01
  Z
  M 84.26 44.27
  Q 82.30 48.08 78.00 50.17
  A 2.18 2.14 -87.2 0 0 77.10 51.00
  Q 76.43 52.11 75.12 52.15
  A 1.39 1.37 -75.3 0 0 73.97 52.83
  L 70.99 58.00
  A 0.42 0.42 0.0 0 0 71.59 58.56
  L 82.50 51.38
  A 1.11 1.11 0.0 0 0 82.99 50.34
  Q 82.83 48.77 83.95 48.13
  A 1.35 1.33 80.0 0 0 84.58 47.22
  Q 85.00 44.92 84.85 44.34
  A 0.32 0.32 0.0 0 0 84.26 44.27
  Z
  M 70.28 50.58
  A 0.29 0.29 0.0 0 0 70.24 50.05
  L 59.92 46.70
  A 1.97 1.87 46.4 0 0 58.92 46.65
  Q 56.45 47.18 56.40 49.74
  A 2.14 2.07 36.5 0 0 56.53 50.52
  L 58.30 55.23
  A 1.27 1.26 65.8 0 0 60.07 55.91
  L 70.28 50.58
  Z
  M 89.09 47.89
  Q 87.79 48.76 87.32 50.41
  Q 86.81 52.21 85.01 52.27
  A 1.53 1.50 -63.4 0 0 84.14 52.57
  Q 78.27 56.93 72.69 60.17
  C 70.69 61.32 70.65 63.49 67.55 63.20
  A 0.42 0.42 0.0 0 0 67.10 63.48
  L 66.91 64.01
  A 0.45 0.45 0.0 0 0 67.40 64.62
  Q 83.37 62.28 89.58 48.31
  A 0.34 0.33 85.3 0 0 89.09 47.89
  Z
  M 25.85 55.35
  L 36.98 55.68
  A 0.96 0.95 15.5 0 0 37.82 55.21
  L 38.39 54.22
  A 1.08 1.07 -40.9 0 0 38.46 53.29
  L 36.59 48.37
  A 0.46 0.46 0.0 0 0 35.91 48.15
  L 25.72 54.86
  A 0.27 0.26 -60.2 0 0 25.85 55.35
  Z
  M 44.83 55.91
  L 55.91 57.53
  A 0.86 0.86 0.0 0 0 56.80 56.28
  L 54.03 50.97
  A 1.57 1.57 0.0 0 0 51.77 50.39
  L 44.64 55.08
  A 0.46 0.45 32.2 0 0 44.83 55.91
  Z
  M 72.08 51.88
  L 61.78 57.25
  A 1.39 1.35 86.3 0 0 61.12 58.02
  Q 60.31 60.50 60.40 60.97
  Q 61.23 65.48 61.76 70.82
  A 0.15 0.15 0.0 0 0 62.05 70.86
  L 65.17 61.82
  A 1.42 1.34 -39.2 0 0 65.25 61.21
  Q 64.97 56.90 69.06 57.10
  A 0.69 0.69 0.0 0 0 69.69 56.76
  L 72.34 52.16
  A 0.20 0.20 0.0 0 0 72.08 51.88
  Z
  M 37.49 58.57
  A 0.69 0.69 0.0 0 0 37.01 57.41
  L 26.05 57.08
  A 1.77 1.77 0.0 0 0 24.52 59.82
  L 27.89 64.93
  A 2.17 2.17 0.0 0 0 31.30 65.22
  L 37.49 58.57
  Z
  M 37.78 62.91
  Q 40.14 63.34 40.21 63.37
  A 3.52 3.44 -30.9 0 0 41.34 63.64
  Q 48.91 64.09 56.09 66.06
  A 1.74 1.73 8.5 0 0 58.29 64.44
  L 58.35 62.65
  A 3.32 3.32 0.0 0 0 55.52 59.28
  L 45.01 57.75
  A 1.10 1.09 -68.2 0 0 43.95 58.21
  C 42.22 60.70 40.44 59.23 39.00 60.42
  Q 37.55 61.62 37.34 62.10
  A 0.59 0.59 0.0 0 0 37.78 62.91
  Z
  M 34.92 64.76
  A 0.80 0.79 -59.9 0 0 34.04 65.00
  L 32.04 67.37
  A 1.13 1.11 63.6 0 0 31.79 68.13
  Q 31.91 70.50 29.44 71.10
  A 1.10 1.10 0.0 0 0 28.67 71.79
  L 26.83 76.84
  A 0.26 0.26 0.0 0 0 27.28 77.09
  L 36.71 65.84
  A 0.30 0.30 0.0 0 0 36.59 65.36
  L 34.92 64.76
  Z
  M 55.81 69.22
  C 49.11 67.91 39.88 64.80 36.75 70.76
  A 2.11 2.06 -32.1 0 0 36.52 71.71
  L 36.53 87.58
  A 2.85 2.77 32.6 0 0 36.82 88.82
  Q 40.74 96.54 40.88 96.86
  C 41.66 98.67 44.50 98.69 44.38 100.94
  A 0.84 0.83 13.1 0 0 44.89 101.75
  Q 47.86 102.98 49.94 102.92
  A 0.91 0.90 9.3 0 0 50.78 102.32
  L 56.20 87.42
  A 1.10 0.97 59.9 0 0 56.25 87.17
  L 56.55 70.13
  A 0.92 0.91 -84.4 0 0 55.81 69.22
  Z
  M 60.60 75.47
  Q 60.59 74.30 59.92 73.30
  A 0.16 0.15 28.6 0 0 59.63 73.38
  Q 59.61 74.41 59.62 75.47
  Q 59.63 76.53 59.67 77.56
  A 0.16 0.15 -29.6 0 0 59.96 77.63
  Q 60.61 76.62 60.60 75.47
  Z
  M 63.35 75.69
  Q 63.35 76.94 64.07 78.03
  A 0.17 0.17 0.0 0 0 64.38 77.94
  Q 64.41 76.83 64.40 75.68
  Q 64.40 74.53 64.35 73.42
  A 0.17 0.17 0.0 0 0 64.04 73.34
  Q 63.34 74.43 63.35 75.69
  Z
  M 33.33 83.24
  L 33.56 75.27
  A 0.31 0.31 0.0 0 0 33.01 75.06
  L 29.98 78.67
  A 1.10 1.09 44.8 0 0 29.99 80.09
  L 32.85 83.41
  A 0.27 0.27 0.0 0 0 33.33 83.24
  Z
  M 63.42 103.18
  Q 63.00 102.27 63.59 101.08
  A 2.31 2.24 58.8 0 0 63.82 100.08
  L 63.82 87.01
  A 2.07 2.05 -61.6 0 0 63.49 85.89
  L 62.90 85.00
  A 1.14 1.10 32.8 0 1 62.72 84.22
  Q 62.89 83.02 62.02 80.52
  A 0.29 0.29 0.0 0 0 61.48 80.49
  Q 60.19 83.25 60.66 85.30
  A 1.50 1.49 58.6 0 1 60.35 86.60
  L 59.42 87.71
  A 0.99 0.98 75.7 0 0 59.25 88.00
  L 54.75 100.38
  A 0.53 0.52 13.0 0 0 55.19 101.08
  C 56.79 101.25 58.46 101.47 58.71 103.31
  A 0.62 0.61 -3.2 0 0 59.31 103.84
  L 62.91 103.95
  A 0.54 0.54 0.0 0 0 63.42 103.18
  Z
  M 37.68 97.71
  Q 34.01 88.28 27.92 81.86
  A 0.45 0.45 0.0 0 0 27.22 81.91
  Q 26.02 83.60 27.12 84.92
  Q 27.85 85.78 27.84 86.05
  Q 27.83 86.91 27.59 87.24
  Q 27.01 88.02 27.63 88.87
  Q 31.77 94.59 37.49 97.88
  A 0.14 0.13 -86.2 0 0 37.68 97.71
  Z"
/>
<path fill="#000000" d="
  M 98.03 26.73
  Q 98.12 27.23 95.72 28.64
  C 94.70 29.24 93.62 28.73 93.41 27.57
  C 93.20 26.41 94.03 25.55 95.20 25.75
  Q 97.94 26.22 98.03 26.73
  Z"
/>
</svg>
